<svg xmlns="http://www.w3.org/2000/svg" width="120" height="120" viewBox="0 0 120 120" fill="none" role="img" aria-label="Auspicious mark">
  <g stroke="#B8923C" stroke-width="1.6" fill="none" stroke-linecap="round" stroke-linejoin="round">
    <!-- lotus petals -->
    <path d="M60 96 C44 84 36 72 38 58 C46 64 54 70 60 82 C66 70 74 64 82 58 C84 72 76 84 60 96 Z"/>
    <path d="M60 88 C50 80 40 74 30 76 C36 66 48 62 60 70 C72 62 84 66 90 76 C80 74 70 80 60 88 Z" opacity="0.7"/>
    <!-- radiance arc -->
    <path d="M30 44 C40 28 80 28 90 44" opacity="0.8"/>
    <circle cx="36" cy="40" r="1.4" fill="#B8923C"/>
    <circle cx="60" cy="32" r="1.6" fill="#B8923C"/>
    <circle cx="84" cy="40" r="1.4" fill="#B8923C"/>
  </g>
  <!-- Auspicious Om glyph -->
  <text x="60" y="60" text-anchor="middle" font-family="Tiro Devanagari Sanskrit, Noto Serif Devanagari, serif" font-size="34" fill="#BC5836">ॐ</text>
</svg>
